<svg width="700" height="700" viewBox="0 0 700 700" fill="none" xmlns="http://www.w3.org/2000/svg">
<rect width="700" height="700" fill="white"/>
<path d="M509.864 201.166C499.677 205.533 477.846 215.722 467.659 220.089C463.293 223 460.382 228.822 461.838 233.189C463.293 239.011 469.114 240.466 474.936 239.011C485.123 234.644 506.953 227.366 518.596 223C524.418 220.089 528.784 212.811 525.873 206.989C524.418 201.166 517.141 198.255 509.864 201.166Z" fill="#18C75A"/>
<path d="M355.597 160.411C361.418 160.411 365.784 156.044 365.784 150.222C365.784 138.578 367.24 115.289 367.24 105.1C367.24 97.8222 361.418 92 355.597 92C349.775 92 342.499 97.8222 343.954 105.1C343.954 116.744 345.409 140.033 345.409 150.222C345.409 156.044 349.775 160.411 355.597 160.411Z" fill="#18C75A"/>
<path d="M421.087 180.789C425.453 183.7 431.275 182.245 435.641 177.878C441.462 169.145 454.56 150.222 461.837 141.489C466.203 135.667 464.748 128.389 458.926 124.022C453.105 119.656 444.373 122.567 441.462 128.389C435.641 138.578 423.998 157.5 418.176 167.689C415.266 170.6 416.721 177.878 421.087 180.789Z" fill="#18C75A"/>
<path d="M285.739 256.478C285.739 256.478 288.65 244.833 290.105 241.922C300.292 206.989 298.837 176.422 285.739 160.411C281.373 153.133 275.552 150.222 268.275 150.222C265.364 150.222 255.177 148.767 250.811 170.6C249.355 176.422 226.07 262.3 208.605 327.8C208.605 327.8 224.614 305.967 230.436 298.689C244.989 275.4 258.087 256.478 285.739 256.478Z" fill="#18C75A"/>
<path d="M348.321 256.478H413.812C413.812 256.478 410.901 250.656 407.99 246.289C403.624 239.011 391.982 223 381.794 214.267C370.151 205.533 357.053 201.167 346.866 206.989C335.223 212.811 335.223 224.456 339.589 236.1C339.589 240.467 345.41 253.567 348.321 256.478Z" fill="#18C75A"/>
<path d="M196.964 396.211C196.964 396.211 234.803 343.811 247.901 326.344C259.544 310.333 268.276 297.233 285.74 294.322C301.749 291.411 314.847 301.6 330.856 313.244C332.311 314.7 343.954 321.978 358.508 333.622C358.508 333.622 373.061 333.622 377.427 333.622C413.811 333.622 442.918 324.889 456.016 308.878C460.382 303.055 463.293 295.778 460.382 289.955C458.927 287.044 457.471 276.855 435.641 276.855C397.802 276.855 326.49 276.855 288.651 276.855C269.731 276.855 263.91 285.589 244.991 310.333C233.348 326.344 211.518 356.911 199.875 371.467C195.509 378.744 191.143 383.111 192.598 388.933C192.598 391.844 194.053 394.755 196.964 396.211Z" fill="#18C75A"/>
<path d="M239.169 391.844C250.812 375.833 259.544 362.733 277.008 359.822C293.017 356.911 306.115 367.1 322.124 378.744C330.856 384.566 348.32 397.666 357.052 403.489C370.15 413.678 375.972 423.866 377.427 432.6C390.525 436.966 402.168 436.966 410.9 435.511C418.177 434.055 423.998 429.689 426.909 422.411C428.364 419.5 432.73 410.766 415.266 397.666C399.257 386.022 335.222 339.444 319.213 327.8C304.66 316.155 295.927 311.789 288.651 313.244C279.919 314.7 275.553 321.978 263.91 336.533C247.901 358.366 215.883 402.033 201.33 423.866C196.964 431.144 192.598 435.511 194.053 441.333C194.053 444.244 195.508 447.155 198.419 448.611C196.964 450.066 228.981 406.4 239.169 391.844Z" fill="#18C75A"/>
<path d="M448.738 337.989C432.729 346.722 409.444 352.544 384.703 352.544C403.622 367.1 422.542 380.2 426.908 383.111C453.104 402.033 450.194 420.955 445.828 431.144C441.462 442.789 431.274 451.522 418.176 454.433C410.899 455.889 405.078 455.889 399.256 455.889C391.98 455.889 383.248 454.433 374.515 451.522C370.149 461.711 361.417 468.989 351.23 473.355C333.766 480.633 310.48 477.722 284.284 466.078C279.918 463.167 278.462 457.344 279.918 452.978C282.828 448.611 288.65 445.7 293.016 448.611C313.391 457.344 332.31 460.255 343.953 455.889C349.775 452.978 354.141 450.067 357.051 444.244C358.507 441.333 362.873 432.6 345.408 419.5C336.676 413.678 319.212 400.578 310.48 394.755C295.927 383.111 287.195 378.744 279.918 380.2C271.186 381.655 266.82 388.933 255.177 403.489C242.079 422.411 214.427 458.8 201.329 477.722C196.963 483.544 196.963 486.455 196.963 490.822C196.963 496.644 199.874 501.011 204.24 505.378C223.159 522.844 268.275 553.411 300.293 573.789C317.757 583.978 339.587 594.167 370.149 594.167C440.006 594.167 496.765 537.4 495.309 467.533C495.309 448.611 490.943 431.144 483.667 415.133C477.845 406.4 451.649 343.811 448.738 337.989Z" fill="#18C75A"/>
</svg>
